<?xml version="1.0" encoding="UTF-8"?>
<svg width="24px" height="24px" viewBox="0 0 24 24" version="1.1" xmlns="http://www.w3.org/2000/svg" xmlns:xlink="http://www.w3.org/1999/xlink">
    <title>Icon</title>
    <style>.st0 {
  fill: #fff;
}

</style>
    <g id="***Button" stroke="none" stroke-width="1" fill="none" fill-rule="evenodd">
        <g id="Button/1-Primary/1-Label/6-Loading" transform="translate(-24.000000, -8.000000)" fill="#FFFFFF">
            <g id="Icon" transform="translate(24.000000, 8.000000)">
                <rect id="Path" fill-opacity="0" x="0" y="0" width="24" height="24"></rect>
                <path class="st0" d="M12,4 C7.581722,4 4,7.581722 4,12 C4,16.418278 7.581722,20 12,20 C16.418278,20 20,16.418278 20,12 C20,7.581722 16.418278,4 12,4 Z M12,6 C15.3137085,6 18,8.6862915 18,12 C18,15.3137085 15.3137085,18 12,18 C8.6862915,18 6,15.3137085 6,12 C6,8.6862915 8.6862915,6 12,6 Z" id="Path" fill-rule="nonzero" opacity="0.479999989"></path>
                <path class="st0" d="M12,4 C16.418278,4 20,7.581722 20,12 C20,16.3349143 16.5521622,19.8645429 12.2491793,19.9961932 L12,20 L12,18 C15.3137085,18 18,15.3137085 18,12 C18,8.6862915 15.3137085,6 12,6 C8.76160306,6 6.12242824,8.56557489 6.00413847,11.7750617 L6,12 L4,12 C4,7.581722 7.581722,4 12,4 Z" id="Path" fill-rule="nonzero"></path>
            </g>
        </g>
    </g>
</svg>